<svg xmlns="http://www.w3.org/2000/svg" xmlns:xlink="http://www.w3.org/1999/xlink" width="187" height="187" viewBox="0 0 187 187">
  <defs>
    <filter id="Ellipse_4" x="0" y="0" width="187" height="187" filterUnits="userSpaceOnUse">
      <feOffset input="SourceAlpha"/>
      <feGaussianBlur stdDeviation="21" result="blur"/>
      <feFlood flood-opacity="0.09"/>
      <feComposite operator="in" in2="blur"/>
      <feComposite in="SourceGraphic"/>
    </filter>
  </defs>
  <g id="Group_704" data-name="Group 704" transform="translate(-805 -1922)">
    <g transform="matrix(1, 0, 0, 1, 805, 1922)" filter="url(#Ellipse_4)">
      <circle id="Ellipse_4-2" data-name="Ellipse 4" cx="30.5" cy="30.5" r="30.5" transform="translate(63 63)" fill="#fff"/>
    </g>
    <g id="noun_support_2328350" transform="translate(878.5 1995.1)">
      <path id="Path_108" data-name="Path 108" d="M37.644,23.321a6.234,6.234,0,0,0-4.069-5.845V16.4a13.5,13.5,0,0,0-27.006,0v1.073a6.244,6.244,0,0,0,2.183,12.1h2.257A1.074,1.074,0,0,0,12.081,28.5V18.142a1.074,1.074,0,0,0-1.073-1.073H9.973V16.4a10.1,10.1,0,1,1,20.2,0v.666H29.136a1.074,1.074,0,0,0-1.073,1.073V28.5a1.074,1.074,0,0,0,1.073,1.073h.481a7.418,7.418,0,0,1-6.252,4.439,1.59,1.59,0,0,0-1.554-1.258H18.3a1.579,1.579,0,0,0-1.591,1.591v1.813A1.579,1.579,0,0,0,18.3,37.748h3.514a1.556,1.556,0,0,0,1.554-1.332A9.816,9.816,0,0,0,32.206,29.5,6.26,6.26,0,0,0,37.644,23.321Z" fill="#f6491e"/>
    </g>
  </g>
</svg>
