<svg xmlns="http://www.w3.org/2000/svg" xmlns:xlink="http://www.w3.org/1999/xlink" width="206" height="206" viewBox="0 0 206 206">
  <defs>
    <filter id="Ellipse_8" x="0" y="0" width="206" height="206" filterUnits="userSpaceOnUse">
      <feOffset input="SourceAlpha"/>
      <feGaussianBlur stdDeviation="21" result="blur"/>
      <feFlood flood-opacity="0.09"/>
      <feComposite operator="in" in2="blur"/>
      <feComposite in="SourceGraphic"/>
    </filter>
  </defs>
  <g id="Group_735" data-name="Group 735" transform="translate(-386 -2691)">
    <g transform="matrix(1, 0, 0, 1, 386, 2691)" filter="url(#Ellipse_8)">
      <circle id="Ellipse_8-2" data-name="Ellipse 8" cx="40" cy="40" r="40" transform="translate(63 63)" fill="#fff"/>
    </g>
    <g id="noun_Reventon_186328" transform="translate(459 2752.738)">
      <path id="Path_112" data-name="Path 112" d="M55.01,44.01c-.018-.346-.061-1.244-.154-3.29-.23-5.061-2.8-5.9-2.8-5.9l2.8-.5a16.763,16.763,0,0,0-.23-1.841c-.153-.729-6.863.46-6.863.46s-4.83-4.6-7.591-5.1c-4.141-.767-16.18-.767-20.322,0-2.761.5-7.592,5.1-7.592,5.1s-6.48-1.189-6.633-.46-.46,1.841-.46,1.841l2.8.5s-2.568.844-2.8,5.9C5.073,42.761,5,51.571,5,51.571S5,55.384,7.025,55.5c3.661.212,5.2.212,5.2.212l.038-2.148,3.254.652,1.035-.153,13.459.843,13.457-.844,1.035.153,3.255-.652.038,2.149s1.538,0,5.2-.212c2.022-.117,2.025-3.929,2.025-3.929Zm-3.873-6.933.92.422-.92,5.866-4.754-1.15-.729-1.189ZM19.39,28.489c4.984-1.074,16.256-1.074,21.241,0,2.746,1.052,7.669,5.828,7.669,5.828H11.722S16.644,29.541,19.39,28.489ZM8.884,37.077l5.482,3.948-.729,1.189-4.754,1.15L7.964,37.5Zm6.288,14.954L7.964,51.15a.709.709,0,0,1-.383-.69,15.083,15.083,0,0,1,1.572-4.87L17.4,47.468Zm14.838-9.95c-.614-.173-.748-1.055-.748-1.055h1.5S30.624,41.908,30.01,42.081ZM52.057,51.15l-7.209.882-2.224-4.564,8.244-1.879a15.092,15.092,0,0,1,1.572,4.87A.709.709,0,0,1,52.057,51.15Z" transform="translate(0)" fill="#f6491e"/>
    </g>
  </g>
</svg>
