<svg xmlns="http://www.w3.org/2000/svg" xmlns:xlink="http://www.w3.org/1999/xlink" width="187" height="187" viewBox="0 0 187 187">
  <defs>
    <filter id="Path_123" x="0" y="0" width="187" height="187" filterUnits="userSpaceOnUse">
      <feOffset input="SourceAlpha"/>
      <feGaussianBlur stdDeviation="21" result="blur"/>
      <feFlood flood-opacity="0.09"/>
      <feComposite operator="in" in2="blur"/>
      <feComposite in="SourceGraphic"/>
    </filter>
  </defs>
  <g id="Group_706" data-name="Group 706" transform="translate(-798 -1632)">
    <g transform="matrix(1, 0, 0, 1, 798, 1632)" filter="url(#Path_123)">
      <path id="Path_123-2" data-name="Path 123" d="M30.5,0A30.5,30.5,0,1,1,0,30.5,30.5,30.5,0,0,1,30.5,0Z" transform="translate(63 63)" fill="#fff"/>
    </g>
    <g id="noun_offer_3407006" transform="translate(873.55 1707.55)">
      <g id="Group_700" data-name="Group 700" transform="translate(2.45 2.45)">
        <path id="Path_106" data-name="Path 106" d="M11.613,11.613a1.537,1.537,0,0,0,0-2.178L5.08,2.9A1.54,1.54,0,1,0,2.9,5.08l6.533,6.533A1.537,1.537,0,0,0,11.613,11.613Z" transform="translate(-2.45 -2.45)" fill="#f6491e"/>
        <path id="Path_107" data-name="Path 107" d="M38.939,24.5,25.805,11.365a2.624,2.624,0,0,0-2.01-.771l-7.806.436,2.446,2.446a3.506,3.506,0,1,1-4.959,4.959L11.03,15.989,10.594,23.8a2.672,2.672,0,0,0,.771,2.01L24.5,38.939a2.609,2.609,0,0,0,3.719,0L38.939,28.218A2.609,2.609,0,0,0,38.939,24.5ZM21.684,26.944a2.108,2.108,0,1,1,0-2.982A2.083,2.083,0,0,1,21.684,26.944Zm5.528,5.629a1.015,1.015,0,0,1-.737.335,1.21,1.21,0,0,1-1.34-1.072L23.862,19.775a1.214,1.214,0,1,1,2.412-.268l1.273,12.061A1.272,1.272,0,0,1,27.213,32.573Zm5.461-5.16a2.109,2.109,0,1,1,0-2.982A2.144,2.144,0,0,1,32.674,27.414Z" transform="translate(-7.864 -7.864)" fill="#f6491e"/>
      </g>
    </g>
  </g>
</svg>
