<svg xmlns="http://www.w3.org/2000/svg" xmlns:xlink="http://www.w3.org/1999/xlink" width="187" height="187" viewBox="0 0 187 187">
  <defs>
    <filter id="Ellipse_3" x="0" y="0" width="187" height="187" filterUnits="userSpaceOnUse">
      <feOffset input="SourceAlpha"/>
      <feGaussianBlur stdDeviation="21" result="blur"/>
      <feFlood flood-opacity="0.09"/>
      <feComposite operator="in" in2="blur"/>
      <feComposite in="SourceGraphic"/>
    </filter>
  </defs>
  <g id="Group_705" data-name="Group 705" transform="translate(-809 -1777)">
    <g transform="matrix(1, 0, 0, 1, 809, 1777)" filter="url(#Ellipse_3)">
      <circle id="Ellipse_3-2" data-name="Ellipse 3" cx="30.5" cy="30.5" r="30.5" transform="translate(63 63)" fill="#fff"/>
    </g>
    <g id="noun_Money_3134074" transform="translate(881.85 1852.484)">
      <path id="Path_104" data-name="Path 104" d="M26.091,28.08H14.361S6.15,35.117,6.15,43.328c0,4.69,3.531,7.037,5.865,7.037H28.438c2.343,0,5.865-2.347,5.865-7.037C34.3,35.117,26.091,28.08,26.091,28.08ZM21.4,44.381v1.878H19.055V44.387a3.152,3.152,0,0,1-2.889-2.934H18.2c.1.812.918,1.335,2.1,1.335,1.091,0,1.865-.53,1.865-1.284,0-.642-.5-1.008-1.733-1.284l-1.307-.279c-1.83-.382-2.729-1.335-2.729-2.867a3.047,3.047,0,0,1,2.645-3V32.186h2.343V34.08a3.123,3.123,0,0,1,2.693,2.889H22.117a1.678,1.678,0,0,0-1.852-1.323c-1.014,0-1.746.488-1.746,1.252,0,.62.478.963,1.656,1.226l1.21.257c2.019.424,2.889,1.284,2.889,2.854A3.133,3.133,0,0,1,21.4,44.381Z" transform="translate(0 -17.358)" fill="#f6491e"/>
      <path id="Path_105" data-name="Path 105" d="M40.985,3.682H37.743a3.531,3.531,0,0,0-5.245,0H29.256a1.175,1.175,0,0,0-1.088,1.605l1.088,3.085h11.73l1.088-3.085a1.175,1.175,0,0,0-1.088-1.605Z" transform="translate(-14.894)" fill="#f6491e"/>
    </g>
  </g>
</svg>
