<svg xmlns="http://www.w3.org/2000/svg" xmlns:xlink="http://www.w3.org/1999/xlink" width="206" height="206" viewBox="0 0 206 206">
  <defs>
    <filter id="Ellipse_9" x="0" y="0" width="206" height="206" filterUnits="userSpaceOnUse">
      <feOffset input="SourceAlpha"/>
      <feGaussianBlur stdDeviation="21" result="blur"/>
      <feFlood flood-opacity="0.09"/>
      <feComposite operator="in" in2="blur"/>
      <feComposite in="SourceGraphic"/>
    </filter>
  </defs>
  <g id="Group_733" data-name="Group 733" transform="translate(-787 -2687)">
    <g transform="matrix(1, 0, 0, 1, 787, 2687)" filter="url(#Ellipse_9)">
      <circle id="Ellipse_9-2" data-name="Ellipse 9" cx="40" cy="40" r="40" transform="translate(63 63)" fill="#fff"/>
    </g>
    <g id="Group_732" data-name="Group 732" transform="translate(-76.074 0.824)">
      <g id="Group_717" data-name="Group 717" transform="translate(946 2769.365)">
        <g id="noun_date_3591058" transform="translate(0 0)">
          <g id="Layer_2" data-name="Layer 2" transform="translate(0 0)">
            <path id="Path_111" data-name="Path 111" d="M35.225,4.741H30.554V4.077a1.327,1.327,0,0,0-2.654,0v.664H13.912V4.077a1.327,1.327,0,1,0-2.654,0v.664H6.587A5.6,5.6,0,0,0,1,10.328V33.6a5.6,5.6,0,0,0,5.587,5.587H35.225A5.6,5.6,0,0,0,40.812,33.6V10.328A5.6,5.6,0,0,0,35.225,4.741ZM29.917,24.527H27.263a1.327,1.327,0,1,1,0-2.654h2.654a1.327,1.327,0,0,1,0,2.654Zm1.327,4.393a1.327,1.327,0,0,1-1.327,1.327H27.263a1.327,1.327,0,1,1,0-2.654h2.654a1.327,1.327,0,0,1,1.3,1.327ZM14.576,24.527H11.922a1.327,1.327,0,1,1,0-2.654h2.654a1.327,1.327,0,1,1,0,2.654ZM15.9,28.92a1.327,1.327,0,0,1-1.327,1.327H11.922a1.327,1.327,0,1,1,0-2.654h2.654A1.327,1.327,0,0,1,15.9,28.92ZM6.614,7.395h4.645v.664a1.327,1.327,0,1,0,2.654,0V7.395H27.9v.664a1.327,1.327,0,1,0,2.654,0V7.395h4.671a2.933,2.933,0,0,1,2.933,2.933v3.145H3.654V10.328A2.933,2.933,0,0,1,6.587,7.395Z" transform="translate(-1 -2.75)" fill="#f6491e"/>
          </g>
        </g>
        <g id="Group_713" data-name="Group 713" transform="translate(26.681 13.77)">
          <g id="noun_Location_3815737" transform="translate(0 0)">
            <g id="Layer_12" data-name="Layer 12" transform="translate(0 0)">
              <g id="Path_110" data-name="Path 110" transform="translate(-22.75 -1.5)" fill="#f6491e">
                <path d="M 31.48526000976562 29.35353851318359 C 30.8078727722168 29.35353851318359 30.1595630645752 29.03452682495117 29.74597549438477 28.49891090393066 C 29.11523628234863 27.68899917602539 26.92131042480469 24.80893898010254 24.8779411315918 21.38502883911133 C 22.13883972167969 16.79534912109375 20.75 13.04344844818115 20.75 10.23352813720703 C 20.75 7.366498470306396 21.86647987365723 4.671078205108643 23.89377021789551 2.643778324127197 C 25.92107009887695 0.6164783239364624 28.61649131774902 -0.5000016689300537 31.4835205078125 -0.5000016689300537 C 34.35055160522461 -0.5000016689300537 37.04597091674805 0.6164783239364624 39.07326889038086 2.643778324127197 C 41.10055923461914 4.671078205108643 42.217041015625 7.366498470306396 42.217041015625 10.23352813720703 C 42.217041015625 12.97572803497314 40.82868957519531 16.70449829101562 38.09056091308594 21.3162784576416 C 36.06233215332031 24.73239326477051 33.86284637451172 27.66522598266602 33.23293685913086 28.48795509338379 C 32.81976699829102 29.03014945983887 32.1672248840332 29.35353851318359 31.48526000976562 29.35353851318359 Z M 31.4835205078125 7.650588512420654 C 30.39305114746094 7.650588512420654 29.50588035583496 8.537757873535156 29.50588035583496 9.628228187561035 C 29.50588035583496 10.71870803833008 30.39305114746094 11.60587787628174 31.4835205078125 11.60587787628174 C 32.57400131225586 11.60587787628174 33.4611701965332 10.71870803833008 33.4611701965332 9.628228187561035 C 33.4611701965332 8.537757873535156 32.57400131225586 7.650588512420654 31.4835205078125 7.650588512420654 Z" stroke="none"/>
                <path d="M 31.48352241516113 1.499998092651367 C 26.66013336181641 1.499998092651367 22.75000381469727 5.410127639770508 22.75000381469727 10.23352813720703 C 22.75000381469727 16.03396797180176 30.14496231079102 25.7567081451416 31.32788276672363 27.27513885498047 C 31.36513328552246 27.32450866699219 31.42340278625488 27.35353851318359 31.48525238037109 27.35353851318359 C 31.54711151123047 27.35353851318359 31.60537147521973 27.32450866699219 31.64263153076172 27.27513885498047 C 32.81863403320312 25.73941802978516 40.217041015625 15.87831783294678 40.217041015625 10.23352813720703 C 40.217041015625 5.410127639770508 36.30691146850586 1.499998092651367 31.48352241516113 1.499998092651367 M 31.48352241516113 13.60587787628174 C 29.2867317199707 13.60587787628174 27.50588226318359 11.82502746582031 27.50588226318359 9.628229141235352 C 27.50588226318359 7.431438446044922 29.2867317199707 5.650588989257812 31.48352241516113 5.650588989257812 C 33.68031311035156 5.650588989257812 35.46116256713867 7.431438446044922 35.46116256713867 9.628229141235352 C 35.46116256713867 11.82502746582031 33.68031311035156 13.60587787628174 31.48352241516113 13.60587787628174 M 31.48352241516113 -2.500001907348633 C 34.88477325439453 -2.500001907348633 38.08244323730469 -1.175481796264648 40.48748016357422 1.229558944702148 C 42.89252471923828 3.634609222412109 44.217041015625 6.832279205322266 44.217041015625 10.23352813720703 C 44.217041015625 13.38375854492188 42.77558135986328 17.34294891357422 39.81029510498047 22.33732795715332 C 37.78220367431641 25.75320625305176 35.64659881591797 28.62544250488281 34.8204345703125 29.70445823669434 C 34.03098297119141 30.73755836486816 32.78615188598633 31.35353851318359 31.48525238037109 31.35353851318359 C 30.19422149658203 31.35353851318359 28.95841217041016 30.74682807922363 28.16811752319336 29.72788619995117 C 27.51935958862305 28.89482307434082 25.26270294189453 25.93241119384766 23.1605339050293 22.40996932983398 C 20.19270324707031 17.43702697753906 18.75000381469727 13.45407867431641 18.75000381469727 10.23352813720703 C 18.75000381469727 6.832279205322266 20.07452392578125 3.634609222412109 22.47956085205078 1.229558944702148 C 24.88460159301758 -1.175481796264648 28.08227157592773 -2.500001907348633 31.48352241516113 -2.500001907348633 Z" stroke="none" fill="#f6f6f6"/>
              </g>
            </g>
          </g>
          <circle id="Ellipse_5" data-name="Ellipse 5" cx="5.082" cy="5.082" r="5.082" transform="translate(3.812 2.984)" fill="#f6491e"/>
        </g>
      </g>
      <circle id="Ellipse_7" data-name="Ellipse 7" cx="5.082" cy="5.082" r="5.082" transform="translate(976.493 2786.559)" fill="#fff"/>
    </g>
  </g>
</svg>
